<?xml version="1.0" standalone="no"?>
<!DOCTYPE svg PUBLIC "-//W3C//DTD SVG 20010904//EN"
 "http://www.w3.org/TR/2001/REC-SVG-20010904/DTD/svg10.dtd">
<svg version="1.0" xmlns="http://www.w3.org/2000/svg"
 width="143.000000pt" height="101.000000pt" viewBox="0 0 143.000000 101.000000"
 preserveAspectRatio="xMidYMid meet">
<metadata>
Created by potrace 1.13, written by Peter Selinger 2001-2015
</metadata>
<g transform="translate(0.000000,101.000000) scale(0.100000,-0.100000)"
fill="#000000" stroke="none">
<path d="M751 870 c-1 -76 -15 -120 -61 -187 -21 -32 -38 -59 -36 -60 1 -1 27
1 59 4 56 6 57 6 73 49 21 55 15 143 -13 204 l-21 45 -1 -55z"/>
<path d="M840 635 c0 -40 -36 -87 -101 -135 -38 -28 -69 -51 -69 -53 0 -1 35
-1 78 1 87 5 106 16 123 72 8 26 8 47 0 77 -12 44 -31 67 -31 38z"/>
<path d="M251 155 c48 -8 102 -18 120 -24 30 -8 31 -9 9 -11 l-25 -2 25 -9
c21 -7 19 -8 -10 -3 -19 2 -64 7 -100 9 -36 2 -51 1 -35 -1 164 -27 362 -77
380 -96 7 -7 -77 -8 -267 -4 -193 5 -278 4 -278 -3 0 -8 202 -11 655 -11 443
0 655 3 655 10 0 7 -93 10 -280 8 -255 -3 -320 1 -257 15 12 2 68 17 125 31
57 15 160 36 230 46 125 19 126 19 38 14 -75 -5 -158 -20 -336 -58 -14 -3 0 3
30 13 41 14 50 20 35 24 -11 3 -2 4 20 1 31 -3 36 -2 20 6 -15 7 -11 8 20 5
28 -4 34 -3 20 3 -16 7 -3 12 55 23 41 7 67 15 58 17 -43 9 -325 -65 -408
-106 -35 -17 -36 -17 -110 15 -115 49 -353 104 -440 102 -19 -1 4 -7 51 -14z"/>
</g>
</svg>
